<?xml version="1.0" encoding="utf-8"?>
<!-- Generator: Adobe Illustrator 19.2.0, SVG Export Plug-In . SVG Version: 6.00 Build 0)  -->
<svg version="1.1" id="Layer_1" xmlns="http://www.w3.org/2000/svg" xmlns:xlink="http://www.w3.org/1999/xlink" x="0px" y="0px"
	 viewBox="0 0 300 200" enable-background="new 0 0 300 200" xml:space="preserve">
<g id="gvk7Ie.tif">
	<g>
		<path fill="#51504F" d="M18.1,159.2c0-39,0-78,0-117c0.2-0.6,0.2-1.3,0-1.9c0-0.6,0-1.3,0-1.9c0.5-2.5,0.4-5.1,1.3-7.6
			C23.8,18.9,32,10.9,44,7c1.9-0.6,3.9-0.5,5.9-0.8c0.2,0,0.4,0,0.5-0.1c0.6,0,1.3,0,1.9,0c0.6,0.2,1.1,0.2,1.7,0
			c65.2,0,130.4,0,195.5,0c0.6,0.2,1.1,0.2,1.7,0c0.6,0,1.1,0,1.7,0c0.9,0.3,1.8,0.3,2.7,0.3c6,0.4,11,3.1,15.7,6.6
			c6.8,5.1,11.3,11.8,13.5,20c0.7,2.5,0.8,5.1,0.8,7.7c0,40,0,80,0,120c0,9.3-3.6,17.1-9.9,23.8c-4.8,5-10.5,8.5-17.2,10.3
			c-2.6,0.7-5.3,0.8-8,0.8c-65.8,0-131.6,0-197.4,0c-9.5,0-17.5-3.6-24.3-10.1c-4.6-4.4-7.7-9.6-9.7-15.6c-0.7-2.1-0.6-4.2-0.9-6.3
			c0-0.2,0-0.4-0.1-0.5c0-0.6,0-1.3,0-1.9C18.3,160.5,18.3,159.9,18.1,159.2z"/>
	</g>
</g>
<g id="NmvuCz.tif">
	<g>
		<path fill="#A1B6A0" d="M78.6,141.7c-0.8,0.2-1.1-0.1-1.4-0.5c-0.3-0.5,0-0.9,0.4-1.1c4-2.3,7.9-4.6,11.9-6.9
			c0.4-0.2,0.8-0.3,1.1,0.3c0.2,0.4,0.5,0.9,0,1.2C86.6,137.1,82.5,139.5,78.6,141.7z"/>
		<path fill="#A1B6A0" d="M115.3,43.4c0.1,0.6-0.3,0.8-0.7,1c-0.5,0.2-0.9,0-1.1-0.4c-2.3-3.9-4.5-7.7-6.8-11.6
			c-0.3-0.5-0.3-1,0.2-1.4c0.6-0.4,1-0.2,1.4,0.4c2.3,3.9,4.6,7.9,6.9,11.9C115.2,43.2,115.2,43.3,115.3,43.4z"/>
		<path fill="#A1B6A0" d="M115.3,158.5c-0.1,0.2-0.3,0.4-0.4,0.7c-2.1,3.6-4.2,7.3-6.4,10.9c-0.4,0.6-0.7,1.4-1.6,0.8
			c-0.7-0.5-0.4-1.1-0.1-1.6c2.1-3.7,4.2-7.3,6.3-11c0.3-0.5,0.6-1.2,1.4-0.8C115,157.6,115.3,157.9,115.3,158.5z"/>
		<path fill="#A1B6A0" d="M188.5,31.5c-0.2,0.4-0.4,0.7-0.6,1c-2,3.6-4.1,7.2-6.1,10.7c-0.4,0.6-0.7,1.7-1.8,0.9
			c-0.9-0.6-0.2-1.2,0.1-1.9c2.1-3.6,4.1-7.1,6.2-10.7c0.3-0.5,0.6-1.2,1.4-0.8C188,30.9,188.3,31.2,188.5,31.5z"/>
		<path fill="#A1B6A0" d="M90.9,67.5c-0.3,1.1-0.8,1.4-1.8,0.9c-3.7-2.2-7.5-4.3-11.2-6.5c-0.5-0.3-1.2-0.6-0.6-1.4
			c0.4-0.6,0.9-0.5,1.4-0.2c3.9,2.2,7.8,4.5,11.7,6.7C90.6,67.1,90.8,67.3,90.9,67.5z"/>
		<path fill="#A1B6A0" d="M204.9,68.6c-0.4,0-0.7-0.2-0.9-0.5c-0.3-0.8,0.2-1.2,0.8-1.5c2.7-1.6,5.5-3.1,8.2-4.7c1-0.6,2-1.2,3-1.8
			c0.5-0.3,1-0.3,1.3,0.4c0.2,0.5,0.1,0.9-0.3,1.2c-3.9,2.3-7.8,4.5-11.7,6.8C205.3,68.6,205.1,68.6,204.9,68.6z"/>
		<path fill="#A1B6A0" d="M217.5,141.1c-0.3,1-0.9,0.9-1.7,0.5c-3.7-2.2-7.5-4.4-11.2-6.6c-0.5-0.3-0.9-0.6-0.6-1.3
			c0.3-0.6,0.8-0.6,1.4-0.3c3.8,2.2,7.6,4.4,11.5,6.6C217.3,140.2,217.6,140.5,217.5,141.1z"/>
		<path fill="#A1B6A0" d="M188.4,170.2c0.1,0.5-0.3,0.8-0.7,0.9c-0.5,0.2-0.9,0-1.1-0.5c-2.2-3.9-4.5-7.8-6.7-11.6
			c-0.3-0.6-0.3-1,0.3-1.4c0.4-0.2,0.8-0.3,1.1,0.2c2.3,4,4.7,8,7,12.1C188.3,169.9,188.4,170,188.4,170.2z"/>
		<path fill="#A1B6A0" d="M148.1,27.9c0.1,2,0.2,3.9,0.3,5.9c0,0.7,0.1,1.5-0.9,1.6c-1.1,0.1-1-0.8-1-1.5c0-4,0-8.1,0-12.1
			c0-0.7-0.1-1.7,0.8-1.7c1.3,0,0.8,1.1,0.9,1.8C148.2,23.9,148.2,25.9,148.1,27.9C148.2,27.9,148.1,27.9,148.1,27.9z"/>
		<path fill="#A1B6A0" d="M220.7,100c2,0,4,0,6,0c0.7,0,1.6-0.2,1.6,0.9c0,0.9-0.8,0.8-1.4,0.8c-4.2,0-8.3,0-12.5,0
			c-0.6,0-1.4,0.1-1.5-0.8c0-1.1,0.9-0.9,1.6-0.9C216.5,100,218.6,100,220.7,100z"/>
		<path fill="#A1B6A0" d="M148.2,174.1c0,2.1,0,4.2,0,6.2c0,0.5,0.1,1.1-0.6,1.2c-0.8,0.1-1.1-0.4-1.1-1.2c0-4.2,0-8.5,0-12.7
			c0-0.7,0.2-1.3,1.1-1.2c0.8,0.1,0.8,0.7,0.8,1.4c0,2.1,0,4.1,0,6.2C148.3,174.1,148.3,174.1,148.2,174.1z"/>
		<path fill="#A1B6A0" d="M74.2,101.7c-2.1,0-4.1,0-6.2,0c-0.6,0-1.3,0-1.3-0.9c0-0.7,0.7-0.7,1.2-0.7c4.2,0,8.5,0,12.7,0
			c0.5,0,1.1,0.1,1.2,0.8c0,0.9-0.7,0.9-1.3,0.9C78.4,101.8,76.3,101.7,74.2,101.7z"/>
	</g>
</g>
<text transform="matrix(1 0 0 1 103.0303 107.3457)" fill="#D1E9D1" font-family="'Noteworthy-Bold'" font-size="27.1019px">Liveview</text>
</svg>
