<?xml version="1.0" encoding="utf-8"?>
<!-- Generator: Adobe Illustrator 19.2.0, SVG Export Plug-In . SVG Version: 6.00 Build 0)  -->
<svg version="1.1" id="Layer_1" xmlns="http://www.w3.org/2000/svg" xmlns:xlink="http://www.w3.org/1999/xlink" x="0px" y="0px"
	 viewBox="0 0 300 200" enable-background="new 0 0 300 200" xml:space="preserve">
<text transform="matrix(1 0 0 1 73.7624 149.3778)" fill="#7EB17F" font-family="'Noteworthy-Bold'" font-size="46.0405px">Liveview</text>
<g id="lsDv7c.tif">
	<g>
		<path fill="#709370" d="M186.1,65.1c-0.3-0.8-0.3-1.6-0.4-2.4c-0.5-3.1-1.3-6.1-2.5-9c-0.7-1.6-2.3-2.5-3.9-2
			c-1.8,0.5-3.1,2.4-2.8,4.1c0.2,1.3,0.8,2.4,1.2,3.6c1.2,4.1,1.6,8.2,1.1,12.4c-0.5,4.6-2.1,8.8-4.5,12.7
			c-2.8,4.4-6.4,7.7-10.9,10.2c-3.3,1.8-6.8,2.9-10.5,3.3c-4.7,0.5-9.2-0.2-13.5-1.9c-4.9-2-9-5.1-12.3-9.4
			c-3.1-4.1-5.1-8.7-5.9-13.9c-1.1-7.9,0.6-15.2,5.1-21.8c2.5-3.6,5.6-6.5,9.4-8.7c1.1-0.6,2.1-1.3,2.6-2.5c0.6-1.4,0.3-3.1-0.8-4.3
			c-0.9-0.9-2.5-1.1-3.8-0.4c-8.9,4.8-15,12.1-18.2,21.9c-0.8,2.6-1.3,5.2-1.6,7.9c0,0.2,0.1,0.4-0.1,0.5c0,0.3,0,0.7,0,1
			c0.1,0.1,0.1,0.3,0,0.4c0,0.6,0,1.3,0,1.9c0.1,0.3,0.1,0.7,0,1c0,0.2,0,0.4,0,0.6c0.1,0.1,0.1,0.2,0,0.3c0,0.2,0,0.4,0,0.6
			c0.2,1.6,0.3,3.3,0.6,4.9c1.3,5.9,3.8,11.2,7.6,15.9c3.2,4,7,7.1,11.5,9.4c3.6,1.9,7.4,3.1,11.5,3.7c0.8,0.1,1.5,0,2.3,0.2
			c0.1,0,0.2,0,0.3,0c0.1-0.1,0.2-0.1,0.3,0c0.2,0,0.5,0,0.7,0c0.3-0.1,0.6-0.1,0.8,0c0.4,0,0.8,0,1.1,0c0.3-0.1,0.7-0.1,1,0
			c0.2,0,0.4,0,0.6,0c0.1-0.1,0.2-0.1,0.3,0c0.2,0,0.4,0,0.6,0c1.6-0.2,3.2-0.3,4.8-0.7c5.8-1.3,10.9-3.9,15.5-7.8
			c3.8-3.3,6.9-7.2,9.2-11.8c1.8-3.7,3.1-7.6,3.6-11.8c0.1-0.7,0-1.4,0.2-2.1c0-0.2,0-0.4,0-0.6c-0.1-0.1-0.1-0.2,0-0.3
			c0-0.2,0-0.4,0-0.6c-0.1-0.3-0.1-0.7,0-1c0-0.3,0-0.7,0-1c-0.2-0.3,0-0.6-0.1-0.9c0-0.3-0.1-0.6,0.1-0.9
			C186.1,65.7,186.1,65.4,186.1,65.1z"/>
		<path fill="#709370" d="M149,31c-0.8,0.4-1.7,0.6-2.4,1.2c-2,1.6-2.7,4.2-1.8,6.6c0.8,2.2,3.2,3.8,5.4,3.6c2.6-0.2,4.7-2,5.2-4.6
			c0.6-2.8-1.1-5.7-3.7-6.6c-0.2-0.1-0.5-0.1-0.6-0.3C150.4,31,149.7,31,149,31z"/>
		<path fill="#709370" d="M151.6,105.3c-0.3-0.2-0.7-0.2-1,0C150.9,105.3,151.2,105.3,151.6,105.3z"/>
		<path fill="#709370" d="M113.9,69.8c0.2-0.3,0.2-0.7,0-1C113.9,69.1,113.9,69.4,113.9,69.8z"/>
		<path fill="#709370" d="M186.1,68.8c-0.2,0.3-0.2,0.7,0,1C186.1,69.4,186.1,69.1,186.1,68.8z"/>
		<path fill="#709370" d="M186,66.9c0,0.3-0.1,0.6,0.1,0.9c0-0.3,0-0.6,0-0.9C186.1,66.8,186.1,66.8,186,66.9z"/>
		<path fill="#709370" d="M186,66.9c0,0,0.1,0,0.1,0c0-0.3,0-0.6,0-0.9C185.9,66.3,186.1,66.6,186,66.9z"/>
		<path fill="#709370" d="M149.4,105.3c-0.3-0.2-0.6-0.2-0.8,0C148.9,105.3,149.2,105.3,149.4,105.3z"/>
		<path fill="#709370" d="M113.9,66.9c0.2-0.1,0.2-0.3,0-0.4C113.9,66.6,113.9,66.7,113.9,66.9z"/>
		<path fill="#709370" d="M186.1,70.4c-0.2,0.1-0.2,0.2,0,0.3C186.1,70.5,186.1,70.5,186.1,70.4z"/>
		<path fill="#709370" d="M113.9,70.6c0.2-0.1,0.2-0.2,0-0.3C113.9,70.5,113.9,70.5,113.9,70.6z"/>
		<path fill="#709370" d="M152.4,105.3c-0.1-0.2-0.2-0.2-0.3,0C152.2,105.3,152.3,105.3,152.4,105.3z"/>
		<path fill="#709370" d="M147.9,105.3c-0.1-0.2-0.2-0.2-0.3,0C147.7,105.3,147.8,105.3,147.9,105.3z"/>
		<path fill="#709370" d="M144.5,68.4c0.1,2.3,1.6,4.4,3.7,5.1c2.4,0.8,4.8,0.1,6.4-2c5.2-6.9,10.5-13.8,15.6-20.8
			c2.2-3,4.4-6,6.3-9.2c0.2-0.3,0.5-0.6,0.3-0.9c-0.2-0.2-0.6,0.1-0.9,0.3c-3,1.8-5.7,4-8.5,6.1c-6.6,5.1-13.2,10.4-19.7,15.7
			c-1,0.8-2.1,1.6-2.7,2.9C144.6,66.5,144.5,67.4,144.5,68.4z"/>
	</g>
</g>
</svg>
